<svg xmlns="http://www.w3.org/2000/svg" xmlns:xlink="http://www.w3.org/1999/xlink" width="26" height="26" viewBox="0 0 26 26"><defs><clipPath id="a"><rect width="26" height="26" transform="translate(49 734)" fill="#881c1c"/></clipPath></defs><g transform="translate(-49 -734)" clip-path="url(#a)"><g transform="translate(49 734)"><path d="M26,13A13,13,0,1,0,10.969,25.842V16.758h-3.3V13h3.3V10.136c0-3.258,1.941-5.058,4.91-5.058a19.991,19.991,0,0,1,2.91.254v3.2H17.15a1.879,1.879,0,0,0-2.119,2.03V13h3.605l-.576,3.758H15.031v9.084A13,13,0,0,0,26,13Z" fill="#1877f2"/><path d="M18.06,16.758,18.637,13H15.031V10.561a1.879,1.879,0,0,1,2.119-2.03h1.639v-3.2a19.991,19.991,0,0,0-2.91-.254c-2.969,0-4.91,1.8-4.91,5.058V13h-3.3v3.758h3.3v9.084a13.137,13.137,0,0,0,4.063,0V16.758Z" fill="#fff"/></g></g></svg>